<!-- public/google-icon.svg -->
<svg xmlns="http://www.w3.org/2000/svg" width="20" height="20" viewBox="0 0 48 48">
  <path fill="#EA4335" d="M24 9.5c3.15 0 5.72 1.26 7.5 2.33l5.5-5.5C33.8 3.13 29.29 1 24 1 14.64 1 6.84 6.71 3.6 14.5l6.61 5.13C12.08 13.33 17.52 9.5 24 9.5z"/>
  <path fill="#34A853" d="M46.5 24c0-1.5-.13-3-.38-4.5H24v9h12.94c-.56 3.07-2.26 5.67-4.76 7.44l7.38 5.74C43.63 37.37 46.5 31.17 46.5 24z"/>
  <path fill="#FBBC05" d="M10.21 28.63A14.45 14.45 0 019.5 24c0-1.62.29-3.19.71-4.63l-6.61-5.13A23.96 23.96 0 000 24c0 3.86.93 7.49 2.56 10.63l7.65-6z"/>
  <path fill="#4285F4" d="M24 46c6.43 0 11.81-2.13 15.75-5.82l-7.38-5.74c-2.07 1.39-4.75 2.21-8.37 2.21-6.47 0-11.91-3.83-13.79-9.26l-7.65 6C6.84 41.29 14.64 46 24 46z"/>
</svg>
